<svg width="19" height="19" viewBox="0 0 19 19" fill="none" xmlns="http://www.w3.org/2000/svg">
<rect width="19" height="19" fill="#1E1E1E"/>
<g clip-path="url(#clip0_0_1)">
<rect width="1440" height="8222" transform="translate(-1332 -49)" fill="white"/>
<rect x="-87" y="-11" width="131" height="41" rx="4" fill="#D27722"/>
<path d="M11.75 2.75H14.75C15.1478 2.75 15.5294 2.90804 15.8107 3.18934C16.092 3.47064 16.25 3.85218 16.25 4.25V14.75C16.25 15.1478 16.092 15.5294 15.8107 15.8107C15.5294 16.092 15.1478 16.25 14.75 16.25H11.75" stroke="white" stroke-width="1.5" stroke-linecap="round" stroke-linejoin="round"/>
<path d="M8 13.25L11.75 9.5L8 5.75" stroke="white" stroke-width="1.5" stroke-linecap="round" stroke-linejoin="round"/>
<path d="M11.75 9.5H2.75" stroke="white" stroke-width="1.5" stroke-linecap="round" stroke-linejoin="round"/>
</g>
<g clip-path="url(#clip1_0_1)">
<rect width="1440" height="8222" transform="translate(-1332 -49)" fill="white"/>
<rect x="-87" y="-11" width="131" height="41" rx="4" fill="#D27722"/>
<path d="M11.75 2.75H14.75C15.1478 2.75 15.5294 2.90804 15.8107 3.18934C16.092 3.47064 16.25 3.85218 16.25 4.25V14.75C16.25 15.1478 16.092 15.5294 15.8107 15.8107C15.5294 16.092 15.1478 16.25 14.75 16.25H11.75" stroke="white" stroke-width="1.5" stroke-linecap="round" stroke-linejoin="round"/>
<path d="M8 13.25L11.75 9.5L8 5.75" stroke="white" stroke-width="1.5" stroke-linecap="round" stroke-linejoin="round"/>
<path d="M11.75 9.5H2.75" stroke="white" stroke-width="1.5" stroke-linecap="round" stroke-linejoin="round"/>
</g>
<defs>
<clipPath id="clip0_0_1">
<rect width="1440" height="8222" fill="white" transform="translate(-1332 -49)"/>
</clipPath>
<clipPath id="clip1_0_1">
<rect width="1440" height="8222" fill="white" transform="translate(-1332 -49)"/>
</clipPath>
</defs>
</svg>
